<?xml version="1.0" encoding="utf-8"?>
<!-- Generator: Adobe Illustrator 25.0.0, SVG Export Plug-In . SVG Version: 6.00 Build 0)  -->
<svg version="1.1" id="Layer_1" xmlns="http://www.w3.org/2000/svg" xmlns:xlink="http://www.w3.org/1999/xlink" x="0px" y="0px"
	 viewBox="0 0 831.3 524.9" style="enable-background:new 0 0 831.3 524.9;" xml:space="preserve">
<style type="text/css">
	.st0{display:none;fill:#ECEAEF;}
	.st1{fill:#9273B7;}
	.st2{fill:#3777D3;}
	.st3{fill:#A7D7F1;}
	.st4{fill:none;stroke:#C7D5D9;stroke-width:4;stroke-miterlimit:10;}
	.st5{fill:#BF8575;}
	.st6{fill:#78B8FF;}
	.st7{fill:#BEDBC3;}
	.st8{fill:#FFFFFF;}
	.st9{fill:#D4A3F1;}
	.st10{fill:#FAFFFF;}
	.st11{fill:#B3A8EA;}
	.st12{fill:#FEFEFE;}
	.st13{fill:#B59DD9;}
	.st14{fill:#ADC3CE;}
	.st15{fill:#3B2312;}
	.st16{fill:none;}
	.st17{fill:none;stroke:#3B2312;stroke-width:0.3;stroke-miterlimit:10;}
	.st18{fill:#456793;}
	.st19{enable-background:new    ;}
	.st20{font-family:'SegoeUI-Bold';}
	.st21{font-size:35.7642px;}
	.st22{fill:#D7FFFF;}
	.st23{fill:#4595A1;}
</style>
<rect x="-551.8" y="-337.7" class="st0" width="1927.8" height="1080"/>
<image style="display:none;overflow:visible;enable-background:new    ;" width="472" height="297" xlink:href="C6A8901C.jpg"  transform="matrix(2.0533 0 0 2.0533 -229.3297 -213.7846)">
</image>
<path class="st1" d="M172.2,319.1c0,0-5,9.4-6.4,10.2c-1.6,0.8-2.5,2.8-4.1,2.1c-1.6-0.7-4,3.5-0.7,3.6c3.3,0.2,5-3.8,7.1-4.2
	c2-0.5,0.8,3,0.8,3l3.9-6.1c0,0,1.6-1.7,0.6-3.2c-1-1.6,1.2-3.8,1.2-3.8L172.2,319.1z"/>
<g>
	<g>
		<path class="st2" d="M236.9,478.4h-27.2c-4.6,0-8.2-3.7-8.2-8.2V292.5c0-4.5,3.7-8.2,8.2-8.2h27.2c4.5,0,8.2,3.7,8.2,8.2v177.7
			C245.2,474.7,241.5,478.4,236.9,478.4z"/>
		<path class="st2" d="M429.9,457.2c3.3,5.8,0.7,13.1-5.5,15.4c-14.5,5.4-33.9,10.2-51.4,10.2c-29.8,0-53.2-8.7-70.3-26.3
			c-17.1-17.5-25.6-40.9-25.6-70c0-31.1,9.6-56.3,28.8-75.6c19.2-19.3,44.1-29,74.7-29c13.7,0,29.3,4.7,41.7,9.1
			c6.6,2.3,9.2,10.2,5.5,16l-7.3,11.5c-2.9,4.5-8.7,6.3-13.6,4c-6.5-3.1-10.4-2.9-22.7-2.9c-18.2,0-32.9,5.7-44.2,17.2
			c-11.2,11.5-16.8,27-16.8,46.6c0,18.8,5.3,33.7,15.8,44.9c10.5,11.2,24.8,16.7,42.7,16.7c13.4,0,20,1,29.1-2.5
			c5-1.9,10.6-0.1,13.3,4.5L429.9,457.2z"/>
		<path class="st2" d="M588.7,320.9h-45.3v148.5c0,5.6-4.5,10-10,10h-23.8c-5.6,0-10-4.5-10-10V320.9h-45.1c-5.6,0-10-4.5-10-10
			v-15.5c0-5.6,4.5-10,10-10h134.3c5.6,0,10,4.5,10,10v15.5C598.8,316.4,594.3,320.9,588.7,320.9z"/>
	</g>
</g>
<path class="st3" d="M259.3,254.9h-35.5v-41.6c0-5.3,4.3-9.6,9.6-9.6h16.3c5.3,0,9.6,4.3,9.6,9.6L259.3,254.9L259.3,254.9z"/>
<rect x="457.5" y="252.6" class="st1" width="15" height="11.1"/>
<polyline class="st4" points="287.6,299 357.4,232.6 678.4,232.6 725.5,182.7 "/>
<path class="st5" d="M413.7,273.1c-1.7,1.1-3.3,2.1-5,3.1c-4.6,2.2-8.1,2.9-10.5,3.1c0,0-4.5,0.4-7.8,1.2c-1.2,0.3-1.2,0.4-2.5,0.7
	c-1.6,0.4-2.5,0.5-2.7,0.9c-0.1,0.2,0,0.4,0.5,0.9c1.6-0.4,4.5-1.1,8.1-0.4c2.7,0.5,4.7,1.6,5.9,2.4c0.3,0.4,0.6,0.7,1,1.1
	c-0.1,0.9-0.2,1.9-0.4,2.7c-0.6,2.2,0,4,0.9,4.2c0.6,0.2,1.4-0.4,1.7-0.7c0.4-1.5,1-3,1.7-4.6c2.9-6.5,7.1-11,10.4-14l0,0
	L413.7,273.1z"/>
<path class="st6" d="M258,106.8v25.4c0,4.4,3.6,8,8,8h3.4l-9.6,15.1c-0.8,1.3,0.7,2.9,2,2l27.4-17.1h41c4.4,0,8-3.6,8-8v-25.4
	c0-4.4-3.6-8-8-8H266C261.6,98.8,258,102.4,258,106.8z M263.8,108c0.1-0.1,0.3-0.2,0.5-0.4c0.4-0.2,0.9-0.4,1.3-0.4H301
	c1.4,0,2.5,1.1,2.5,2.5c0,0.7-0.3,1.3-0.7,1.8s-1.1,0.7-1.8,0.7h-35.4c-1.4,0-2.5-1.1-2.5-2.5C263,109,263.3,108.4,263.8,108z
	 M263.8,117.6c0.4-0.5,1.1-0.7,1.8-0.7h23.9c1.4,0,2.5,1.1,2.5,2.5c0,0.7-0.3,1.3-0.7,1.8c-0.4,0.5-1.1,0.7-1.8,0.7h-23.9
	c-1.4,0-2.5-1.1-2.5-2.5C263,118.8,263.3,118.1,263.8,117.6z M304,132.2c-0.4,0.5-1.1,0.7-1.8,0.7h-36.7c-1.4,0-2.5-1.1-2.5-2.5
	c0-0.7,0.3-1.3,0.7-1.8s1.1-0.7,1.8-0.7h36.7c1.4,0,2.5,1.1,2.5,2.5C304.7,131.1,304.5,131.7,304,132.2z M328.6,132.2
	c-0.4,0.5-1.1,0.7-1.8,0.7h-17c-1.4,0-2.5-1.1-2.5-2.5c0-0.7,0.3-1.3,0.7-1.8s1.1-0.7,1.8-0.7h17c1.4,0,2.5,1.1,2.5,2.5
	C329.4,131.1,329.1,131.7,328.6,132.2z M328.6,121.2c-0.4,0.5-1.1,0.7-1.8,0.7h-27.4c-1.4,0-2.5-1.1-2.5-2.5c0-0.7,0.3-1.4,0.7-1.8
	c0.4-0.5,1.1-0.7,1.8-0.7h27.4c1.4,0,2.5,1.1,2.5,2.5C329.4,120.2,329.1,120.8,328.6,121.2z M328.6,111.5c-0.4,0.5-1.1,0.7-1.8,0.7
	h-14c-1.4,0-2.5-1.1-2.5-2.5c0-0.7,0.3-1.4,0.7-1.8c0.4-0.5,1.1-0.7,1.8-0.7h14c1.4,0,2.5,1.1,2.5,2.5
	C329.4,110.4,329.1,111.1,328.6,111.5z"/>
<path class="st7" d="M300.7,178.5v0.4h-1.4l0,0c0.4-0.2,0.9-0.4,1.3-0.4L300.7,178.5L300.7,178.5z"/>
<path class="st7" d="M300.7,178.5v0.4h-1.4l0,0c0.4-0.2,0.9-0.4,1.3-0.4L300.7,178.5L300.7,178.5z"/>
<path class="st8" d="M300.7,178.5v0.4h-1.4l0,0c0.4-0.2,0.9-0.4,1.3-0.4L300.7,178.5L300.7,178.5z"/>
<g>
	<path class="st9" d="M355,251.2h-18.4c-1.4,0-2.4-1.1-2.4-2.4v-38c0-1.4,1.1-2.4,2.4-2.4H355c1.4,0,2.4,1.1,2.4,2.4v38
		C357.4,250,356.3,251.2,355,251.2z"/>
	<rect x="336.5" y="212.3" class="st10" width="18.6" height="34"/>
</g>
<g>
	<circle class="st2" cx="103.5" cy="178.6" r="7.7"/>
	<ellipse class="st2" cx="104.6" cy="197.1" rx="12.5" ry="9.2"/>
	<path class="st2" d="M104.2,160.2c-14.4,0-26,11.7-26,26c0,14.3,11.7,26,26,26c14.4,0,26-11.7,26-26
		C130.3,171.9,118.6,160.2,104.2,160.2z M104.2,209.2c-12.7,0-22.9-10.2-22.9-22.9c0-12.7,10.3-22.9,22.9-22.9s22.9,10.2,22.9,22.9
		C127.2,198.9,116.9,209.2,104.2,209.2z"/>
</g>
<g>
	<circle class="st2" cx="678.4" cy="384.6" r="9"/>
	<ellipse class="st2" cx="679.7" cy="406.2" rx="14.7" ry="10.8"/>
	<path class="st2" d="M679.3,363.2c-16.8,0-30.4,13.6-30.4,30.4c0,16.8,13.6,30.4,30.4,30.4c16.8,0,30.4-13.6,30.4-30.4
		C709.7,376.8,696.1,363.2,679.3,363.2z M679.3,420.4c-14.8,0-26.8-12-26.8-26.8s12-26.8,26.8-26.8s26.8,12,26.8,26.8
		S694.1,420.4,679.3,420.4z"/>
</g>
<path class="st2" d="M149.4,412.4c-16.4,0-29.8,13.3-29.8,29.8s13.3,29.8,29.8,29.8s29.8-13.3,29.8-29.8S165.9,412.4,149.4,412.4z
	 M149.4,468.4c-14.5,0-26.2-11.7-26.2-26.2s11.7-26.2,26.2-26.2s26.2,11.7,26.2,26.2S163.9,468.4,149.4,468.4z"/>
<path class="st2" d="M149.4,419.5c-7.1,0-12.2,7-9.9,13.8l10.3,30.6l9.6-30.9c0.3-1.1,0.5-2.1,0.5-3.1
	C159.9,424.4,155.4,419.5,149.4,419.5z M149.4,438.1c-3.9,0-7.1-3.2-7.1-7.1s3.2-7.1,7.1-7.1c3.9,0,7.1,3.2,7.1,7.1
	S153.3,438.1,149.4,438.1z"/>
<g>
	<polygon class="st11" points="95.2,280.3 146.1,280.3 146.1,333.6 139.4,337 93.4,299.2 	"/>
	<polygon class="st11" points="63.8,335.4 55.1,279.3 94,279.3 94,282.5 132.9,284.2 139.4,337 	"/>
	<polygon class="st12" points="134.9,281.2 140.5,336.1 146.1,333.6 142.8,281.2 	"/>
	<polygon class="st12" points="94,282.5 136.3,282.5 136.3,281.4 94,281.2 	"/>
</g>
<circle class="st11" cx="104.2" cy="229.8" r="4.3"/>
<circle class="st11" cx="104.2" cy="244" r="4.3"/>
<circle class="st11" cx="104.2" cy="256.7" r="4.3"/>
<circle class="st11" cx="104.2" cy="270.2" r="4.3"/>
<g>
	<g>
		<g>
			<circle class="st2" cx="504.5" cy="52.8" r="7.7"/>
			<ellipse class="st2" cx="505.7" cy="71.2" rx="12.5" ry="9.2"/>
			<path class="st2" d="M505.3,34.4c-14.4,0-26,11.7-26,26c0,14.4,11.7,26,26,26c14.4,0,26-11.7,26-26S519.7,34.4,505.3,34.4z
				 M505.3,83.3c-12.7,0-22.9-10.2-22.9-22.9c0-12.7,10.3-22.9,22.9-22.9s22.9,10.2,22.9,22.9C528.2,73.1,517.9,83.3,505.3,83.3z"/>
		</g>
	</g>
	<polygon class="st2" points="519,81.1 557.9,110.9 524.8,74.8 	"/>
</g>
<g>
	<path class="st2" d="M628.2,229.2h-54.8c-1.1,0-1.9-0.9-1.9-1.9v-2.9c0-1.1,0.9-1.9,1.9-1.9h54.8c1.1,0,1.9,0.9,1.9,1.9v2.9
		C630.1,228.3,629.3,229.2,628.2,229.2z"/>
	<rect x="591.1" y="204" class="st2" width="19.9" height="19.9"/>
	<path class="st2" d="M662.9,116.2H538.1c-2.2,0-4,1.8-4,4V204c0,2.2,1.8,4,4,4h124.8c2.2,0,4-1.8,4-4v-83.8
		C666.9,118,665.1,116.2,662.9,116.2z M660.3,198.8H540.7v-78.3h119.6V198.8z"/>
</g>
<g>
	<polygon class="st13" points="582.9,158.6 595.1,161 595.1,182.7 582.9,182.7 	"/>
	<polygon class="st13" points="563.8,174.3 575.2,171.3 575.2,182.7 563.8,182.7 	"/>
	<polygon class="st13" points="597.1,160.9 604,155.9 604,182.7 597.1,182.7 	"/>
	<rect x="607.8" y="154.2" class="st13" width="6.8" height="28.5"/>
	<polygon class="st1" points="614.7,154.2 620.8,152.2 620.8,183.6 614.7,183.6 	"/>
	<rect x="604" y="153.5" class="st1" width="3.8" height="30"/>
	<rect x="595.1" y="160.9" class="st1" width="1.9" height="22.6"/>
	<polygon class="st1" points="575.2,168.6 579.1,159.6 582.9,158.6 582.9,183.6 575.2,183.6 	"/>
	<path class="st1" d="M636.5,187h-77.2v-48.9c0-1.2,1-2.2,2.2-2.2l0,0c1.2,0,2.2,1,2.2,2.2v39.1v5.5h72.8c1.2,0,2.2,1,2.2,2.2l0,0
		C638.7,186,637.7,187,636.5,187z"/>
	<path class="st1" d="M562.4,175.4L562.4,175.4c-0.4-0.8,0-1.8,0.8-2.2l11.8-5.4l3.5-12l17.4,3.8l7.8-7.1h12.7l10.9-10.9
		c0.6-0.6,1.7-0.6,2.3,0l0,0c0.6,0.6,0.6,1.7,0,2.3l-11.8,11.8H605l-8.1,7.4l-16.1-3.5l-3.1,10.5l-13.1,6
		C563.8,176.6,562.8,176.2,562.4,175.4z"/>
</g>
<path class="st6" d="M744.6,225.6h-1.3c-0.1-0.5-0.2-1.1-0.2-1.6C743.7,224.4,744.2,225,744.6,225.6z"/>
<path class="st6" d="M744.6,225.6h-1.3c-0.1-0.5-0.2-1.1-0.2-1.6C743.7,224.4,744.2,225,744.6,225.6z"/>
<path class="st6" d="M773.6,164.5h-4.8c0.3-1.5,0.5-3,0.5-4.7l0,0c0-11.8-9.6-21.5-21.5-21.5l0,0c-11.6,0-21.1,9.2-21.5,20.8
	c-0.3-0.4-0.7-0.9-1.1-1.2c-2-2-4.8-3.3-7.9-3.3s-5.9,1.2-7.9,3.3c-1.7,1.7-2.9,4-3.2,6.6h-2.4c-2.6,0-5,1.1-6.6,2.7
	c-1.7,1.7-2.7,4-2.7,6.6c0,5.2,4.2,9.4,9.4,9.4h69.8c2.6,0,5-1.1,6.6-2.8c1.7-1.7,2.7-4,2.7-6.6C783,168.7,778.8,164.5,773.6,164.5z
	 M744.9,166.8c-4.7,0-8.4-3.8-8.4-8.4s3.8-8.4,8.4-8.4c4.7,0,8.4,3.8,8.4,8.4S749.6,166.8,744.9,166.8z"/>
<path class="st13" d="M283.3,296.1c-4.8,0-8.8,4-8.8,8.8c0,4.8,4,8.8,8.8,8.8c4.8,0,8.8-4,8.8-8.8
	C292.1,300,288.2,296.1,283.3,296.1z M283.3,311.1c-3.4,0-6.2-2.8-6.2-6.2c0-3.4,2.8-6.2,6.2-6.2c3.4,0,6.2,2.8,6.2,6.2
	C289.5,308.3,286.7,311.1,283.3,311.1z"/>
<path class="st13" d="M575.2,293.5c-4.8,0-8.8,4-8.8,8.8s4,8.8,8.8,8.8c4.8,0,8.8-4,8.8-8.8C584,297.4,580.1,293.5,575.2,293.5z
	 M575.2,308.5c-3.5,0-6.3-2.8-6.3-6.2c0-3.4,2.8-6.2,6.3-6.2c3.4,0,6.2,2.8,6.2,6.2C581.4,305.7,578.6,308.5,575.2,308.5z"/>
<line class="st4" x1="656.4" y1="373.5" x2="577.7" y2="305.2"/>
<path class="st8" d="M581.4,302.3c0,3.4-2.8,6.2-6.2,6.2s-6.2-2.8-6.2-6.2c0-3.4,2.8-6.2,6.2-6.2S581.4,298.9,581.4,302.3z"/>
<path class="st6" d="M364.8,428.4h-62.9c-2.2,0-4-1.7-4-4v-17.6c0-2.2,1.7-4,4-4h62.9c2.2,0,4,1.7,4,4v17.6
	C368.8,426.6,367,428.4,364.8,428.4z"/>
<path class="st13" d="M329.5,425.3h-8.2c-2.2,0-3.9-1.7-3.9-3.9v-11.7c0-2.2,1.7-3.9,3.9-3.9h8.2c2.2,0,3.9,1.7,3.9,3.9v11.7
	C333.3,423.6,331.6,425.3,329.5,425.3z"/>
<path class="st13" d="M325.4,422h-14.1c-1.2,0-2.1-0.9-2.1-2.1v-8.7c0-1.2,0.9-2.1,2.1-2.1h14.1V422z"/>
<path class="st6" d="M364.8,457.6h-62.9c-2.2,0-4-1.7-4-4V436c0-2.2,1.7-4,4-4h62.9c2.2,0,4,1.7,4,4v17.6
	C368.8,455.8,367,457.6,364.8,457.6z"/>
<path class="st13" d="M329.5,454.6h-8.2c-2.2,0-3.9-1.7-3.9-3.9V439c0-2.2,1.7-3.9,3.9-3.9h8.2c2.2,0,3.9,1.7,3.9,3.9v11.7
	C333.3,452.8,331.6,454.6,329.5,454.6z"/>
<path class="st13" d="M325.4,451.3h-14.1c-1.2,0-2.1-0.9-2.1-2.1v-8.7c0-1.2,0.9-2.1,2.1-2.1h14.1V451.3z"/>
<path class="st6" d="M364.8,486.9h-62.9c-2.2,0-4-1.7-4-4v-17.6c0-2.2,1.7-4,4-4h62.9c2.2,0,4,1.7,4,4v17.6
	C368.8,485.2,367,486.9,364.8,486.9z"/>
<path class="st13" d="M329.5,483.9h-8.2c-2.2,0-3.9-1.7-3.9-3.9v-11.7c0-2.2,1.7-3.9,3.9-3.9h8.2c2.2,0,3.9,1.7,3.9,3.9V480
	C333.3,482.1,331.6,483.9,329.5,483.9z"/>
<path class="st13" d="M325.4,480.6h-14.1c-1.2,0-2.1-0.9-2.1-2.1v-8.7c0-1.2,0.9-2.1,2.1-2.1h14.1V480.6z"/>
<rect x="455.6" y="154.2" class="st14" width="4.5" height="12.4"/>
<rect x="241.1" y="194.9" class="st14" width="4.6" height="12.4"/>
<path class="st5" d="M234.1,178.6c0,0,0.4,4.9-1.1,7.8c-0.6,1-1.7,1.6-2.1,2.1c-0.9,1.1-0.8,2.8,0.2,3.7c0.2,0.2,0.6,0.4,0.9,0.3
	c0.9-0.2,1.6,1.3,2,2.2c0.2,0.4,0.4,0.9,0.7,1.2l0,0c0.3,0.4,0.4,1.1,0.4,1.6c-0.2,1.1,0.3,2.6,1.1,3.5c1.1,1.4,2,0,3.8-0.9
	c0,0,8.1-2.9,8.5-4.3c0.4-1.4,1.1-14.7,1.1-14.7s-5.5-4.8-6.6-5c-1.1-0.2-8.7,1-8.7,1L234.1,178.6L234.1,178.6z"/>
<path class="st5" d="M469.9,129c0,0-0.3,5.7,1.7,9.5c0.7,1.3,2,2.7,2.5,3.4c1.1,1.5,2.2,3,0.8,4.3c-0.4,0.3-2.5,1.2-2.9,1.2
	c-1.1-0.2-2,1.2-2.5,2.4c-0.2,0.6,0.1,1.5-0.3,2l0,0c-0.4,0.6-0.6,1.4-0.4,2.1c0.2,1.5-0.4,3.4-1.4,4.5c-1.5,1.8-7.4,0-9.8-1.2
	c0,0-5.8-3.8-6.4-5.6c-0.6-1.8-1.4-19.3-1.4-19.3s7.3-6.3,8.6-6.5c1.4-0.2,11.3,1.3,11.3,1.3L469.9,129L469.9,129z"/>
<path class="st15" d="M451.3,150.6c-2,1.2-9.7-5-12.2-13.5c-0.4-1.2-2.6-9.6,2.4-17.4c6.1-9.4,17.6-9.7,19.8-9.7
	c9.7-0.2,21,5,23.1,13c0.2,0.6,1.2,4.5-0.8,6.9c-3.5,4.1-14.1,0.6-15.8,0c-6.1-2-8.6-4.8-10.1-3.7c-2.6,1.9,2.3,11.9,0.4,13
	c-1.6,0.9-5.9-5.7-7.7-4.8C448,135.5,453.9,149.1,451.3,150.6z"/>
<path class="st15" d="M249,194.9c1.3,0.7,6.3-3.2,7.8-8.7c0.2-0.7,1.7-6.2-1.6-11.2c-3.9-6.1-11.3-6.2-12.8-6.3
	c-6.3-0.1-13.5,3.2-14.9,8.4c0,0.1,0,0.1-0.1,0.2c-0.4,1.5-0.1,3.2,0.6,4.2c1.4,2.2,5.3,1.7,5.9,1.7c1.9-0.2,4.5-1.2,6.5-2.5
	c0.6-0.4,1.9-1.2,3.2-0.9c0.2,0.1,0.7,0.2,1,0.6c1.7,1.6-1.4,6.3-0.2,7.2c0.8,0.6,2.8-1.6,4-1C250.1,187.2,247.3,193.9,249,194.9z"
	/>
<path class="st15" d="M468.1,134.9h-2.9c-0.6,0-1.1-0.5-1.1-1.1l0,0c0-0.6,0.5-1.1,1.1-1.1h2.9c0.6,0,1.1,0.5,1.1,1.1l0,0
	C469.2,134.4,468.7,134.9,468.1,134.9z"/>
<path class="st15" d="M238.1,185.1l-1.5,0.3c-0.3,0.1-0.6-0.1-0.7-0.4l0,0c-0.1-0.3,0.1-0.6,0.4-0.7l1.5-0.3
	c0.3-0.1,0.6,0.1,0.7,0.4l0,0C238.6,184.7,238.4,185.1,238.1,185.1z"/>
<path class="st15" d="M235.1,184.2c0-0.1,0.4-0.4,0.9-0.4l2.4-0.4c0.5-0.1,0.9-0.1,0.9,0.1"/>
<line class="st16" x1="238.4" y1="183.9" x2="236" y2="184.4"/>
<line class="st17" x1="468.8" y1="152.9" x2="460.4" y2="150.1"/>
<path class="st14" d="M472,253.8h-15.4c0,0-8.7-51-7.9-54.9c0.8-4,5.1-31,5.1-31l7.4-1.3c0,0,21.5,13.8,20.6,35.3
	c-0.9,21.5-7.9,51.9-7.9,51.9L472,253.8L472,253.8z"/>
<path class="st18" d="M456.9,166.6l4.7,81.2h-20.4l-0.7-21.9c-0.5,0.7-1.2,1.9-1.9,3.3c-3.9,7-4.9,11.7-6.7,16.8
	c-1.9,5.2-4.6,9.9-10,19.3c-2.7,4.7-5.2,8.6-7.1,11.5c-1.4-1.1-2.7-2.1-4.1-3.2l28.5-94.5c0.5-1.6,2-5.6,6.2-8.8
	C450.2,166.6,455.4,166.5,456.9,166.6z"/>
<path class="st18" d="M484.2,245.5v-48l38.7,29.3l9.6-0.9c-13-12.9-25.9-25.8-38.9-38.7c-3.8-4.7-10.7-11.7-21.3-16.6
	c-4.5-2-8.6-3.3-12.2-4c-0.1,1.4-0.1,2.7-0.2,4c2.4-0.1,5.6,0.2,8.8,2c6.7,3.7,10.5,12,9.9,21.4c-1.2,17.2-2.4,34.3-3.5,51.5H484.2
	L484.2,245.5z"/>
<path class="st18" d="M517.2,383.2c1.3-11,2.7-22.3,4.3-33.6c2.4-17.8,5.1-35.2,7.9-52c0.5-1.1,2.3-5.1,0.8-9.7
	c-1.5-4.7-5.7-8.2-11-9.1c-15.9-5.2-31.8-10.4-47.6-15.6c-7.1-1.7-14.3,0.1-18.6,4.8c-7.1,7.8-4.7,21.9,2.6,26.5
	c1.4,0.9,3.7,1.9,7.3,1.8c17.4-0.3,34.7-0.7,52-1c-1.6,5.5-3.1,12.2-3.7,20c-0.5,5.9-0.4,11.2-0.1,15.8c0.1,4,0.9,23.1,1.1,27.1
	c0.1,3.4,0.8,21.5,1,24.9C514.5,383.2,515.8,383.2,517.2,383.2z"/>
<path class="st1" d="M511.7,390.9h0.1c3,0,5.4,2.5,5.3,5.5c0,2.8,0.3,5.8,1.9,6.5c1.7,0.7,4,1.4,5.9,1.9c1.4,0.3,2.6-0.7,2.6-2l0,0
	c0-1.1-0.8-2-1.9-2.1c-1.7-0.2-4-1-4.8-3.3c-1.4-3.8-1.2-11.3-1.2-11.3l-1.4-2.6h-6.5L511.7,390.9L511.7,390.9z"/>
<path class="st18" d="M473.5,265.9l41.3-33.4c0.4-0.5,3.5-4.9,9.3-5.1c6.3-0.2,9.8,4.7,10.1,5.1c19.6,17.4,39.2,34.7,58.7,52
	l-3.8,6.3c-9.7-8.2-18.5-13.1-24.9-16c-9.1-4.2-14.6-5.1-22-10.4c-7.4-5.3-12-11.7-14.8-16.3c-2.5,3.7-6.9,8.9-13.6,13.6
	c-7.8,5.5-15.3,7.7-19.8,8.7C487,268.9,480.2,267.4,473.5,265.9z"/>
<path class="st1" d="M588.2,297.7l-1.2-8.5l0.7-4.3c0,0,1.2-2.4,4-1c0.2,0.1,0.4,0.2,0.7,0.3c6.4,3.1,16.8,7.6,20.5,6.6
	c5.5-1.6,9.2,3.2,1.7,5.2c-9.4,2.5-21.6-3.5-20.6-4.7v6L588.2,297.7z"/>
<rect x="227.1" y="254.9" class="st1" width="10.7" height="8.6"/>
<path class="st18" d="M183.5,262.3c14.5-0.4,29-0.8,43.5-1.2c5.5-1.5,10.9,0.4,13.3,4.5c2.3,3.8,1,8.1,0.8,8.7
	c-1.6,4.8-5.8,6.7-6.5,6.9c-10.9,0.2-21.9,0.4-32.8,0.7c-0.1,5.1-0.5,11-1.6,17.5c-1.7,9.9-4.5,18.2-7.3,24.7c-0.9,0-1.7,0-2.6,0
	c0.5-17.6,1.1-35.2,1.6-52.7c-0.1-0.6-0.2-1.3-0.4-1.9c-0.2,1.2-0.5,2.4-0.7,3.6c0.2,4.2-0.1,10.6-2.4,17.9c-1.7,5.5-4,9.7-6.1,12.8
	c-3,6.4-6,12.8-8.9,19.2l-3-1.6C174.8,301.6,179.2,281.9,183.5,262.3z"/>
<path class="st18" d="M260.4,252.4l-19.7-1.3l0.9-16.5l-6.4,10l-4.5,1.3c-5.6-4.6-11.5-9.6-17.4-15.2c-4.5-4.2-8.7-8.4-12.5-12.4
	c0-2.2,0-4.4,0-6.6c3.8,5.5,10.5,13.3,20.9,19.2c3.8,2.1,7.4,3.6,10.6,4.6c3.1-4.9,6.2-9.9,9.3-14.8c-0.2-5.6-0.3-11.3-0.5-16.9
	c0.7-0.1,9.6-0.4,15,7.3c4.8,6.8,3.3,14.3,3,15.4C259.6,235.1,260.1,243.7,260.4,252.4z"/>
<path class="st18" d="M239,206.4c-4.5,5.5-9.1,10.9-13.6,16.4c0,2.2,0,4.3,0,6.5l-0.4,1.6v1.8l0.1,0.9l0.9,16.1h-5.3l-1.8-17
	l-18-12.5l5.2-2.2l12.6,4.7c1.9-3.9,5.4-9.7,11.5-14.6c2.2-1.8,4.5-3.2,6.5-4.3C237.5,204.6,238.2,205.5,239,206.4z"/>
<path class="st1" d="M190.4,324c0,0,0.8,10.5,0,12c-0.8,1.6-0.6,3.7-2.2,4c-1.6,0.2-1.5,5.1,1.3,3.4c2.7-1.6,2.2-5.9,3.6-7.4
	c1.4-1.6,2.2,2.1,2.2,2.1v-7.3c0,0,0.4-2.2-1.2-3c-1.7-0.8-1-3.8-1-3.8L190.4,324L190.4,324z"/>
<g class="st19">
	
		<image style="overflow:visible;opacity:0.35;enable-background:new    ;" width="225" height="81" xlink:href="C6A8901A.png"  transform="matrix(0.6202 0 0 0.6202 327.9053 363.2935)">
	</image>
	<g>
		<text transform="matrix(1 0 0 1 329.4241 395.4433)" class="st13 st20 st21">KSUSTA</text>
	</g>
</g>
<g>
	<path class="st22" d="M181,190.8c0,0-0.5-0.9-0.2-0.8c0.3,0.1,8.3,5.6,8.3,5.6l12.3-4.8l0.6,1.1c0,0-0.9,1.8-1.1,1.9
		c-0.1,0.1-11.5,5.2-11.5,5.2l-7.4-6.4L181,190.8z"/>
	<polygon class="st23" points="180.9,190.3 188.7,197.6 202,191.9 202,222.4 191.3,221.4 182,214.9 	"/>
	
		<rect x="189.8" y="197.5" transform="matrix(0.994 -0.1091 0.1091 0.994 -21.7335 21.9872)" class="st22" width="0.6" height="24.2"/>
</g>
</svg>
