<?xml version="1.0" encoding="utf-8"?>
<!-- Generator: Adobe Illustrator 25.0.0, SVG Export Plug-In . SVG Version: 6.00 Build 0)  -->
<svg version="1.1" id="Layer_1" xmlns="http://www.w3.org/2000/svg" xmlns:xlink="http://www.w3.org/1999/xlink" x="0px" y="0px"
	 viewBox="0 0 1920 1155.5" style="enable-background:new 0 0 1920 1155.5;" xml:space="preserve">
<style type="text/css">
	.st0{display:none;fill:#ECEAEF;}
	.st1{fill:#9273B7;}
	.st2{fill:#3777D3;}
	.st3{fill:#A7D7F1;}
	.st4{fill:none;stroke:#C7D5D9;stroke-width:4;stroke-miterlimit:10;}
	.st5{fill:#BF8575;}
	.st6{fill:#78B8FF;}
	.st7{fill:#BEDBC3;}
	.st8{fill:#FFFFFF;}
	.st9{fill:#D4A3F1;}
	.st10{fill:#FAFFFF;}
	.st11{fill:#B3A8EA;}
	.st12{fill:#FEFEFE;}
	.st13{fill:#B59DD9;}
	.st14{fill:#ADC3CE;}
	.st15{fill:#3B2312;}
	.st16{fill:none;}
	.st17{fill:none;stroke:#3B2312;stroke-width:0.3;stroke-miterlimit:10;}
	.st18{fill:#456793;}
	.st19{enable-background:new    ;}
	.st20{font-family:'SegoeUI-Bold';}
	.st21{font-size:57.6669px;}
	.st22{fill:#D7FFFF;}
	.st23{fill:#4595A1;}
	.st24{font-size:143.7978px;}
	.st25{font-family:'SegoeUI';}
	.st26{font-size:29px;}
</style>
<rect x="-7.8" class="st0" width="1927.8" height="1080"/>
<image style="display:none;overflow:visible;enable-background:new    ;" width="472" height="297" xlink:href="C6A8901C.jpg"  transform="matrix(2.0533 0 0 2.0533 314.6703 123.875)">
</image>
<path class="st1" d="M596,697.8c0,0-8,15.1-10.4,16.4c-2.5,1.3-4.1,4.5-6.6,3.4c-2.5-1.2-6.5,5.6-1.1,5.8c5.3,0.3,8.1-6.1,11.5-6.8
	c3.3-0.8,1.3,4.9,1.3,4.9l6.3-9.9c0,0,2.5-2.7,0.9-5.2c-1.6-2.6,1.9-6.2,1.9-6.2L596,697.8z"/>
<g>
	<g>
		<path class="st2" d="M700.2,954.6h-43.9c-7.4,0-13.3-6-13.3-13.3V654.8c0-7.3,6-13.3,13.3-13.3h43.9c7.3,0,13.3,6,13.3,13.3v286.5
			C713.6,948.7,707.6,954.6,700.2,954.6z"/>
		<path class="st2" d="M1011.5,920.4c5.4,9.3,1.2,21.2-8.9,24.9c-23.4,8.7-54.7,16.5-82.9,16.5c-48,0-85.8-14.1-113.3-42.4
			c-27.5-28.2-41.3-65.9-41.3-112.9c0-50.1,15.5-90.7,46.4-121.9c30.9-31.1,71.1-46.7,120.4-46.7c22.1,0,47.2,7.5,67.3,14.6
			c10.6,3.7,14.9,16.4,8.9,25.8l-11.8,18.5c-4.7,7.3-14.1,10.2-22,6.4c-10.5-5-16.8-4.7-36.6-4.7c-29.4,0-53.1,9.2-71.2,27.7
			c-18,18.5-27.1,43.5-27.1,75.1c0,30.3,8.5,54.4,25.5,72.4c17,18,40,27,68.8,27c21.6,0,32.2,1.6,46.9-4.1c8-3.1,17.1-0.1,21.4,7.3
			L1011.5,920.4z"/>
		<path class="st2" d="M1267.5,700.6h-73.1v239.5c0,9-7.3,16.2-16.2,16.2h-38.3c-9,0-16.2-7.3-16.2-16.2V700.6H1051
			c-9,0-16.2-7.3-16.2-16.2v-25c0-9,7.3-16.2,16.2-16.2h216.5c9,0,16.2,7.3,16.2,16.2v25C1283.8,693.4,1276.5,700.6,1267.5,700.6z"
			/>
	</g>
</g>
<path class="st3" d="M736.4,594.2h-57.2v-67c0-8.5,6.9-15.5,15.5-15.5h26.3c8.5,0,15.5,6.9,15.5,15.5V594.2z"/>
<rect x="1055.9" y="590.5" class="st1" width="24.2" height="17.9"/>
<polyline class="st4" points="782,665.4 894.6,558.2 1412.2,558.2 1488.1,477.8 "/>
<path class="st5" d="M985.3,623.5c-2.7,1.7-5.3,3.4-8,5c-7.4,3.5-13,4.6-17,5c0,0-7.3,0.7-12.6,2c-2,0.5-1.9,0.6-4.1,1.1
	c-2.6,0.6-4.1,0.8-4.3,1.5c-0.1,0.3,0,0.7,0.8,1.4c2.5-0.7,7.3-1.7,13.1-0.6c4.3,0.8,7.5,2.5,9.5,3.8c0.5,0.6,1,1.2,1.6,1.8
	c-0.2,1.5-0.4,3-0.6,4.4c-0.9,3.6,0,6.4,1.5,6.8c1,0.3,2.3-0.6,2.8-1.2c0.7-2.4,1.6-4.8,2.7-7.4c4.7-10.5,11.4-17.8,16.8-22.5l0,0
	L985.3,623.5z"/>
<path class="st6" d="M734.3,355.4v40.9c0,7.1,5.8,12.9,12.9,12.9h5.5l-15.5,24.4c-1.3,2.1,1.1,4.6,3.2,3.3l44.2-27.6h66.1
	c7.1,0,12.9-5.8,12.9-12.9v-40.9c0-7.1-5.8-12.9-12.9-12.9H747.2C740.1,342.5,734.3,348.3,734.3,355.4z M743.6,357.3
	c0.2-0.2,0.5-0.4,0.8-0.6c0.6-0.4,1.4-0.6,2.1-0.6h57.1c2.3,0,4.1,1.8,4.1,4.1c0,1.1-0.5,2.1-1.2,2.9c-0.7,0.8-1.8,1.2-2.9,1.2
	h-57.1c-2.2,0-4.1-1.8-4.1-4.1C742.4,359,742.8,358,743.6,357.3z M743.6,372.9c0.7-0.8,1.8-1.2,2.9-1.2H785c2.2,0,4.1,1.8,4.1,4.1
	c0,1.1-0.5,2.1-1.2,2.9c-0.7,0.8-1.7,1.2-2.9,1.2h-38.5c-2.2,0-4.1-1.8-4.1-4.1C742.4,374.7,742.8,373.7,743.6,372.9z M808.4,396.3
	c-0.7,0.8-1.8,1.2-2.9,1.2h-59.1c-2.2,0-4.1-1.8-4.1-4.1c0-1.1,0.5-2.1,1.2-2.9c0.7-0.8,1.8-1.2,2.9-1.2h59.1c2.2,0,4.1,1.8,4.1,4.1
	C809.6,394.6,809.2,395.6,808.4,396.3z M848.2,396.3c-0.7,0.8-1.8,1.2-2.9,1.2h-27.4c-2.2,0-4.1-1.8-4.1-4.1c0-1.1,0.5-2.1,1.2-2.9
	c0.7-0.8,1.8-1.2,2.9-1.2h27.4c2.3,0,4.1,1.8,4.1,4.1C849.4,394.6,849,395.6,848.2,396.3z M848.2,378.7c-0.7,0.8-1.8,1.2-2.9,1.2
	h-44.1c-2.2,0-4.1-1.8-4.1-4.1c0-1.1,0.5-2.2,1.2-2.9c0.7-0.8,1.8-1.2,2.9-1.2h44.1c2.3,0,4.1,1.8,4.1,4.1
	C849.4,377,849,378,848.2,378.7z M848.2,363c-0.7,0.8-1.8,1.2-2.9,1.2h-22.5c-2.3,0-4.1-1.8-4.1-4.1c0-1.1,0.5-2.2,1.2-2.9
	c0.7-0.8,1.8-1.2,2.9-1.2h22.5c2.3,0,4.1,1.8,4.1,4.1C849.4,361.3,849,362.3,848.2,363z"/>
<path class="st7" d="M803.2,471v0.7h-2.3v0c0.6-0.4,1.4-0.6,2.1-0.6L803.2,471L803.2,471z"/>
<path class="st7" d="M803.2,471v0.7h-2.3v0c0.6-0.4,1.4-0.6,2.1-0.6L803.2,471L803.2,471z"/>
<path class="st8" d="M803.2,471v0.7h-2.3v0c0.6-0.4,1.4-0.6,2.1-0.6L803.2,471L803.2,471z"/>
<g>
	<path class="st9" d="M890.7,588.2H861c-2.2,0-3.9-1.8-3.9-3.9v-61.3c0-2.2,1.8-3.9,3.9-3.9h29.7c2.2,0,3.9,1.8,3.9,3.9v61.3
		C894.6,586.4,892.8,588.2,890.7,588.2z"/>
	<rect x="860.8" y="525.5" class="st10" width="30" height="54.9"/>
</g>
<g>
	<circle class="st2" cx="485.2" cy="471.2" r="12.4"/>
	<ellipse class="st2" cx="486.9" cy="501" rx="20.2" ry="14.9"/>
	<path class="st2" d="M486.3,441.6c-23.2,0-41.9,18.8-41.9,41.9s18.8,41.9,41.9,41.9c23.2,0,41.9-18.8,41.9-41.9
		C528.3,460.4,509.5,441.6,486.3,441.6z M486.3,520.5c-20.4,0-37-16.5-37-37c0-20.4,16.6-37,37-37c20.4,0,37,16.5,37,37
		C523.3,504,506.8,520.5,486.3,520.5z"/>
</g>
<g>
	<circle class="st2" cx="1412.2" cy="803.3" r="14.5"/>
	<ellipse class="st2" cx="1414.3" cy="838.2" rx="23.7" ry="17.4"/>
	<path class="st2" d="M1413.6,768.8c-27.1,0-49,21.9-49,49s21.9,49,49,49s49-21.9,49-49S1440.7,768.8,1413.6,768.8z M1413.6,861
		c-23.9,0-43.2-19.3-43.2-43.2c0-23.9,19.3-43.2,43.2-43.2s43.2,19.3,43.2,43.2S1437.4,861,1413.6,861z"/>
</g>
<path class="st2" d="M559.2,848.1c-26.5,0-48,21.5-48,48s21.5,48,48,48c26.5,0,48-21.5,48-48S585.7,848.1,559.2,848.1z M559.2,938.4
	c-23.4,0-42.3-18.9-42.3-42.3s18.9-42.3,42.3-42.3s42.3,18.9,42.3,42.3S582.6,938.4,559.2,938.4z"/>
<path class="st2" d="M559.2,859.7c-11.5,0-19.6,11.3-16,22.2l16.6,49.4l15.4-49.8c0.5-1.7,0.8-3.4,0.8-5
	C576.1,867.6,568.8,859.7,559.2,859.7z M559.2,889.6c-6.3,0-11.4-5.1-11.4-11.4s5.1-11.4,11.4-11.4c6.3,0,11.4,5.1,11.4,11.4
	S565.5,889.6,559.2,889.6z"/>
<g>
	<polygon class="st11" points="471.8,635.2 553.8,635.2 553.8,721.1 543,726.6 468.9,665.6 	"/>
	<polygon class="st11" points="421.2,724 407.2,633.6 469.9,633.6 469.9,638.8 532.5,641.4 543,726.6 	"/>
	<polygon class="st12" points="535.8,636.6 544.8,725.2 553.8,721.1 548.5,636.6 	"/>
	<polygon class="st12" points="469.9,638.8 538.1,638.8 538.1,636.9 469.9,636.6 	"/>
</g>
<circle class="st11" cx="486.3" cy="553.8" r="7"/>
<circle class="st11" cx="486.3" cy="576.6" r="7"/>
<circle class="st11" cx="486.3" cy="597.2" r="7"/>
<circle class="st11" cx="486.3" cy="618.9" r="7"/>
<g>
	<g>
		<g>
			<circle class="st2" cx="1131.8" cy="268.3" r="12.4"/>
			<ellipse class="st2" cx="1133.6" cy="298.1" rx="20.2" ry="14.9"/>
			<path class="st2" d="M1133,238.7c-23.2,0-41.9,18.8-41.9,41.9c0,23.2,18.8,41.9,41.9,41.9c23.2,0,41.9-18.8,41.9-41.9
				C1174.9,257.5,1156.2,238.7,1133,238.7z M1133,317.6c-20.4,0-37-16.5-37-37c0-20.4,16.6-37,37-37c20.4,0,37,16.5,37,37
				C1169.9,301.1,1153.4,317.6,1133,317.6z"/>
		</g>
	</g>
	<polygon class="st2" points="1155.1,314 1217.8,362 1164.4,303.8 	"/>
</g>
<g>
	<path class="st2" d="M1331.2,552.8h-88.3c-1.7,0-3.1-1.4-3.1-3.1v-4.6c0-1.7,1.4-3.1,3.1-3.1h88.3c1.7,0,3.1,1.4,3.1,3.1v4.6
		C1334.3,551.4,1332.9,552.8,1331.2,552.8z"/>
	<rect x="1271.4" y="512.1" class="st2" width="32.1" height="32.1"/>
	<path class="st2" d="M1387.2,370.6h-201.3c-3.5,0-6.4,2.9-6.4,6.4v135.2c0,3.5,2.9,6.4,6.4,6.4h201.3c3.5,0,6.4-2.9,6.4-6.4V377
		C1393.6,373.5,1390.7,370.6,1387.2,370.6z M1383,503.8h-192.9V377.5H1383V503.8z"/>
</g>
<g>
	<polygon class="st13" points="1258.2,438.9 1277.9,442.8 1277.9,477.8 1258.2,477.8 	"/>
	<polygon class="st13" points="1227.4,464.3 1245.7,459.5 1245.7,477.8 1227.4,477.8 	"/>
	<polygon class="st13" points="1281,442.7 1292.1,434.6 1292.1,477.8 1281,477.8 	"/>
	<rect x="1298.3" y="431.8" class="st13" width="11" height="46"/>
	<polygon class="st1" points="1309.4,431.8 1319.2,428.6 1319.2,479.2 1309.4,479.2 	"/>
	<rect x="1292.1" y="430.8" class="st1" width="6.2" height="48.3"/>
	<rect x="1277.9" y="442.7" class="st1" width="3.1" height="36.5"/>
	<polygon class="st1" points="1245.7,455 1252,440.6 1258.2,438.9 1258.2,479.2 1245.7,479.2 	"/>
	<path class="st1" d="M1344.6,484.8h-124.4v-78.8c0-1.9,1.6-3.5,3.5-3.5l0,0c1.9,0,3.5,1.6,3.5,3.5V469v8.8h117.4
		c1.9,0,3.5,1.6,3.5,3.5l0,0C1348.1,483.2,1346.5,484.8,1344.6,484.8z"/>
	<path class="st1" d="M1225.1,466.1L1225.1,466.1c-0.6-1.3,0-2.9,1.3-3.5l19.1-8.7l5.7-19.3l28,6.1l12.5-11.5h20.5l17.5-17.5
		c1-1,2.7-1,3.7,0l0,0c1,1,1,2.7,0,3.7l-19,19h-20.6l-13,12l-25.9-5.7l-5,16.9l-21.2,9.7C1227.3,468,1225.7,467.4,1225.1,466.1z"/>
</g>
<path class="st6" d="M1518.9,547l-2.1,0c-0.2-0.8-0.3-1.7-0.3-2.6C1517.4,545.1,1518.2,546,1518.9,547z"/>
<path class="st6" d="M1518.9,547l-2.1,0c-0.2-0.8-0.3-1.7-0.3-2.6C1517.4,545.1,1518.2,546,1518.9,547z"/>
<path class="st6" d="M1565.7,448.5h-7.8c0.5-2.4,0.8-4.9,0.8-7.5v0c0-19.1-15.5-34.6-34.6-34.6h0c-18.7,0-34,14.9-34.6,33.5
	c-0.5-0.7-1.1-1.4-1.8-2c-3.3-3.3-7.8-5.3-12.8-5.3c-5,0-9.5,2-12.8,5.3c-2.8,2.8-4.7,6.5-5.2,10.7h-3.9c-4.2,0-8,1.7-10.7,4.4
	c-2.7,2.8-4.4,6.5-4.4,10.7c0,8.4,6.8,15.2,15.2,15.2h112.6c4.2,0,8-1.7,10.7-4.5c2.7-2.8,4.4-6.5,4.4-10.7
	C1580.8,455.3,1574,448.5,1565.7,448.5z M1519.4,452.2c-7.5,0-13.6-6.1-13.6-13.6c0-7.5,6.1-13.6,13.6-13.6
	c7.5,0,13.6,6.1,13.6,13.6S1526.9,452.2,1519.4,452.2z"/>
<path class="st13" d="M775,660.6c-7.8,0-14.2,6.4-14.2,14.2c0,7.8,6.4,14.2,14.2,14.2c7.8,0,14.2-6.4,14.2-14.2
	C789.2,666.9,782.9,660.6,775,660.6z M775,684.8c-5.5,0-10-4.5-10-10c0-5.5,4.5-10,10-10c5.5,0,10,4.5,10,10
	C785.1,680.3,780.6,684.8,775,684.8z"/>
<path class="st13" d="M1245.7,656.4c-7.8,0-14.2,6.4-14.2,14.2c0,7.8,6.4,14.2,14.2,14.2c7.8,0,14.2-6.4,14.2-14.2
	C1259.9,662.8,1253.6,656.4,1245.7,656.4z M1245.7,680.6c-5.6,0-10.1-4.5-10.1-10c0-5.5,4.5-10,10.1-10c5.5,0,10,4.5,10,10
	C1255.8,676.2,1251.3,680.6,1245.7,680.6z"/>
<line class="st4" x1="1376.7" y1="785.5" x2="1249.8" y2="675.4"/>
<path class="st8" d="M1255.8,670.6c0,5.5-4.5,10-10,10c-5.5,0-10-4.5-10-10c0-5.5,4.5-10,10-10
	C1251.3,660.6,1255.8,665.1,1255.8,670.6z"/>
<path class="st6" d="M906.5,873.9H805c-3.5,0-6.4-2.8-6.4-6.4v-28.4c0-3.5,2.8-6.4,6.4-6.4h101.5c3.5,0,6.4,2.8,6.4,6.4v28.4
	C912.9,871,910,873.9,906.5,873.9z"/>
<path class="st13" d="M849.5,869h-13.2c-3.5,0-6.3-2.8-6.3-6.3v-18.8c0-3.5,2.8-6.3,6.3-6.3h13.2c3.5,0,6.3,2.8,6.3,6.3v18.8
	C855.7,866.2,852.9,869,849.5,869z"/>
<path class="st13" d="M843,863.7h-22.7c-1.9,0-3.4-1.5-3.4-3.4v-14c0-1.9,1.5-3.4,3.4-3.4H843V863.7z"/>
<path class="st6" d="M906.5,921.1H805c-3.5,0-6.4-2.8-6.4-6.4v-28.4c0-3.5,2.8-6.4,6.4-6.4h101.5c3.5,0,6.4,2.8,6.4,6.4v28.4
	C912.9,918.2,910,921.1,906.5,921.1z"/>
<path class="st13" d="M849.5,916.2h-13.2c-3.5,0-6.3-2.8-6.3-6.3v-18.8c0-3.5,2.8-6.3,6.3-6.3h13.2c3.5,0,6.3,2.8,6.3,6.3v18.8
	C855.7,913.4,852.9,916.2,849.5,916.2z"/>
<path class="st13" d="M843,910.9h-22.7c-1.9,0-3.4-1.5-3.4-3.4v-14c0-1.9,1.5-3.4,3.4-3.4H843V910.9z"/>
<path class="st6" d="M906.5,968.3H805c-3.5,0-6.4-2.8-6.4-6.4v-28.4c0-3.5,2.8-6.4,6.4-6.4h101.5c3.5,0,6.4,2.8,6.4,6.4v28.4
	C912.9,965.5,910,968.3,906.5,968.3z"/>
<path class="st13" d="M849.5,963.4h-13.2c-3.5,0-6.3-2.8-6.3-6.3v-18.8c0-3.5,2.8-6.3,6.3-6.3h13.2c3.5,0,6.3,2.8,6.3,6.3v18.8
	C855.7,960.6,852.9,963.4,849.5,963.4z"/>
<path class="st13" d="M843,958.1h-22.7c-1.9,0-3.4-1.5-3.4-3.4v-14c0-1.9,1.5-3.4,3.4-3.4H843V958.1z"/>
<rect x="1052.9" y="431.8" class="st14" width="7.3" height="20"/>
<rect x="707" y="497.5" class="st14" width="7.4" height="20"/>
<path class="st5" d="M695.8,471.2c0,0,0.7,7.9-1.8,12.5c-0.9,1.6-2.8,2.5-3.4,3.4c-1.4,1.8-1.3,4.5,0.3,6c0.4,0.4,0.9,0.6,1.4,0.5
	c1.4-0.3,2.6,2.1,3.2,3.5c0.3,0.7,0.7,1.4,1.2,2l0,0c0.5,0.7,0.7,1.7,0.6,2.6c-0.3,1.8,0.5,4.2,1.7,5.6c1.8,2.2,3.3,0,6.2-1.4
	c0,0,13-4.7,13.7-6.9c0.7-2.2,1.7-23.7,1.7-23.7s-8.9-7.7-10.6-8c-1.7-0.3-14,1.6-14,1.6L695.8,471.2L695.8,471.2z"/>
<path class="st5" d="M1075.9,391.3c0,0-0.5,9.2,2.8,15.3c1.2,2.1,3.2,4.4,4.1,5.5c1.8,2.4,3.5,4.9,1.3,7c-0.6,0.5-4.1,2-4.7,1.9
	c-1.8-0.4-3.2,1.9-4,3.8c-0.4,0.9,0.1,2.4-0.5,3.2l0,0c-0.7,1-1,2.2-0.7,3.4c0.4,2.4-0.7,5.5-2.2,7.3c-2.4,2.9-12,0-15.8-1.9
	c0,0-9.4-6.1-10.3-9c-0.9-2.9-2.2-31.1-2.2-31.1s11.7-10.1,13.9-10.5c2.2-0.4,18.3,2.1,18.3,2.1L1075.9,391.3L1075.9,391.3z"/>
<path class="st15" d="M1046,426.1c-3.3,1.9-15.7-8-19.6-21.7c-0.6-1.9-4.2-15.5,3.9-28.1c9.8-15.2,28.3-15.6,32-15.7
	c15.7-0.3,33.8,8.1,37.2,20.9c0.3,1,1.9,7.3-1.3,11.1c-5.7,6.6-22.7,0.9-25.5,0c-9.8-3.3-13.9-7.7-16.3-5.9
	c-4.2,3.1,3.7,19.2,0.7,20.9c-2.6,1.4-9.5-9.2-12.4-7.8C1040.6,401.7,1050.2,423.7,1046,426.1z"/>
<path class="st15" d="M719.7,497.4c2.1,1.2,10.1-5.2,12.6-14c0.4-1.2,2.7-10-2.5-18.1c-6.3-9.8-18.2-10-20.6-10.1
	c-10.1-0.2-21.8,5.2-24,13.5c0,0.1,0,0.2-0.1,0.3c-0.6,2.4-0.1,5.2,0.9,6.8c2.3,3.5,8.5,2.8,9.5,2.7c3.1-0.4,7.3-2,10.5-4
	c1-0.6,3.1-2,5.2-1.4c0.3,0.1,1.1,0.3,1.6,0.9c2.7,2.6-2.2,10.2-0.3,11.6c1.3,1,4.5-2.5,6.4-1.6C721.5,485.1,717,495.8,719.7,497.4z
	"/>
<path class="st15" d="M1073.1,400.8h-4.6c-1,0-1.7-0.8-1.7-1.7l0,0c0-1,0.8-1.7,1.7-1.7h4.6c1,0,1.7,0.8,1.7,1.7l0,0
	C1074.8,400,1074,400.8,1073.1,400.8z"/>
<path class="st15" d="M702.2,481.7l-2.4,0.5c-0.5,0.1-1-0.2-1.1-0.7l0,0c-0.1-0.5,0.2-1,0.7-1.1l2.4-0.5c0.5-0.1,1,0.2,1.1,0.7l0,0
	C703,481.1,702.6,481.6,702.2,481.7z"/>
<path class="st15" d="M697.3,480.3c0-0.2,0.6-0.6,1.4-0.7l3.8-0.7c0.8-0.1,1.5-0.1,1.5,0.2"/>
<line class="st16" x1="702.6" y1="479.8" x2="698.8" y2="480.5"/>
<line class="st17" x1="1074.2" y1="429.7" x2="1060.7" y2="425.2"/>
<path class="st14" d="M1079.4,592.4h-24.8c0,0-14.1-82.3-12.7-88.6c1.3-6.4,8.2-50,8.2-50l11.9-2.1c0,0,34.7,22.2,33.2,56.9
	s-12.7,83.7-12.7,83.7L1079.4,592.4L1079.4,592.4z"/>
<path class="st18" d="M1055,451.8l7.6,130.9h-32.9l-1.2-35.3c-0.8,1.2-1.9,3-3.1,5.3c-6.3,11.3-7.9,18.8-10.8,27.1
	c-3,8.4-7.4,15.9-16.2,31.1c-4.4,7.6-8.4,13.9-11.5,18.6c-2.2-1.7-4.4-3.4-6.6-5.1l46-152.3c0.8-2.5,3.3-9.1,10-14.2
	C1044.2,451.8,1052.5,451.7,1055,451.8z"/>
<path class="st18" d="M1099,579v-77.4l62.4,47.3l15.4-1.5c-20.9-20.8-41.8-41.6-62.7-62.4c-6.2-7.6-17.2-18.9-34.3-26.7
	c-7.2-3.3-13.9-5.3-19.7-6.5c-0.1,2.2-0.2,4.3-0.4,6.5c3.9-0.1,9.1,0.4,14.2,3.2c10.8,5.9,16.9,19.4,15.9,34.5
	c-1.9,27.7-3.8,55.3-5.6,83L1099,579L1099,579z"/>
<path class="st18" d="M1152.2,801.1c2.1-17.8,4.4-35.9,6.9-54.2c3.9-28.7,8.2-56.7,12.7-83.9c0.8-1.7,3.7-8.2,1.3-15.7
	c-2.4-7.6-9.2-13.2-17.7-14.7c-25.6-8.4-51.2-16.8-76.7-25.1c-11.4-2.7-23,0.1-30,7.8c-11.4,12.6-7.5,35.3,4.2,42.8
	c2.3,1.5,6,3.1,11.8,2.9c28-0.5,55.9-1.1,83.9-1.6c-2.6,8.8-5,19.7-6,32.3c-0.8,9.5-0.7,18-0.2,25.5c0.2,6.4,1.5,37.3,1.7,43.7
	c0.2,5.5,1.3,34.7,1.6,40.2C1147.8,801.1,1150,801.1,1152.2,801.1z"/>
<path class="st1" d="M1143.4,813.5h0.2c4.8,0,8.7,4,8.6,8.8c0,4.5,0.5,9.3,3,10.5c2.7,1.2,6.5,2.3,9.5,3c2.2,0.5,4.2-1.1,4.2-3.3
	l0,0c0-1.7-1.3-3.2-3-3.4c-2.7-0.4-6.4-1.6-7.8-5.4c-2.3-6.2-2-18.3-2-18.3l-2.3-4.2h-10.5L1143.4,813.5L1143.4,813.5z"/>
<path class="st18" d="M1081.7,612l66.6-53.9c0.6-0.8,5.7-7.9,15-8.2c10.1-0.3,15.8,7.6,16.3,8.2c31.6,28,63.2,55.9,94.7,83.9
	l-6.2,10.1c-15.6-13.3-29.8-21.1-40.1-25.8c-14.7-6.7-23.5-8.2-35.5-16.8c-12-8.6-19.4-18.9-23.9-26.3c-4.1,5.9-11.1,14.3-21.9,21.9
	c-12.5,8.8-24.6,12.4-32,14C1103.6,616.8,1092.6,614.4,1081.7,612z"/>
<path class="st1" d="M1266.7,663.2l-1.9-13.7l1.2-6.9c0,0,1.9-3.8,6.5-1.6c0.4,0.2,0.7,0.4,1.1,0.5c10.4,5,27.1,12.3,33,10.6
	c8.8-2.6,14.9,5.1,2.8,8.4c-15.2,4.1-34.8-5.6-33.2-7.6v9.7L1266.7,663.2z"/>
<rect x="684.4" y="594.2" class="st1" width="17.3" height="13.8"/>
<path class="st18" d="M614.2,606.2c23.4-0.6,46.8-1.3,70.2-2c8.8-2.4,17.6,0.7,21.5,7.2c3.7,6.2,1.6,13,1.3,14
	c-2.5,7.8-9.4,10.8-10.5,11.2c-17.6,0.4-35.3,0.7-52.9,1.1c-0.1,8.3-0.8,17.8-2.6,28.2c-2.8,16-7.3,29.4-11.8,39.8
	c-1.4,0-2.8,0-4.2,0c0.8-28.3,1.7-56.7,2.5-85c-0.2-1-0.4-2.1-0.6-3.1c-0.4,1.9-0.8,3.9-1.1,5.8c0.3,6.8-0.1,17.1-3.8,28.8
	c-2.8,8.8-6.5,15.7-9.8,20.6c-4.8,10.3-9.6,20.7-14.4,31l-4.9-2.6C600.2,669.5,607.2,637.8,614.2,606.2z"/>
<path class="st18" d="M738.2,590.2l-31.7-2.1l1.5-26.6l-10.3,16.2l-7.2,2.1c-9.1-7.4-18.5-15.5-28.1-24.5c-7.2-6.8-14-13.5-20.2-20
	c0-3.6,0-7.1,0-10.7c6.2,8.8,17,21.5,33.7,30.9c6.1,3.4,11.9,5.8,17.1,7.4c5-7.9,10-15.9,15-23.8c-0.3-9.1-0.5-18.2-0.8-27.2
	c1.2-0.1,15.4-0.6,24.2,11.7c7.8,10.9,5.3,23.1,4.9,24.9C736.9,562.3,737.6,576.2,738.2,590.2z"/>
<path class="st18" d="M703.6,516c-7.3,8.8-14.6,17.6-21.9,26.5c0,3.5,0,7,0,10.5l-0.7,2.6v2.9l0.2,1.5l1.4,25.9h-8.5l-2.9-27.4
	l-29.1-20.2l8.4-3.6l20.3,7.5c3.1-6.3,8.7-15.6,18.6-23.5c3.6-2.9,7.2-5.1,10.5-6.9C701.2,513.2,702.4,514.6,703.6,516z"/>
<path class="st1" d="M625.3,705.7c0,0,1.3,17,0,19.4c-1.3,2.5-1,6-3.6,6.4s-2.4,8.2,2.1,5.5c4.4-2.6,3.5-9.5,5.8-11.9
	c2.3-2.5,3.6,3.4,3.6,3.4v-11.8c0,0,0.7-3.6-2-4.9s-1.6-6.2-1.6-6.2L625.3,705.7L625.3,705.7z"/>
<g class="st19">
	
		<image style="overflow:visible;opacity:0.35;" width="225" height="81" xlink:href="C6A8901A.png"  transform="matrix(1 0 0 1 847 769)">
	</image>
	<g>
		<text transform="matrix(1 0 0 1 849.4486 820.8399)" class="st13 st20 st21">KSUSTA</text>
	</g>
</g>
<g>
	<path class="st22" d="M610.2,490.8c0,0-0.8-1.4-0.3-1.3s13.4,9.1,13.4,9.1l19.8-7.7l0.9,1.8c0,0-1.5,2.9-1.7,3s-18.5,8.4-18.5,8.4
		l-11.9-10.3L610.2,490.8z"/>
	<polygon class="st23" points="609.9,490 622.6,501.8 644,492.7 644,541.8 626.8,540.2 611.7,529.7 	"/>
	
		<rect x="624.3" y="501.7" transform="matrix(0.994 -0.1091 0.1091 0.994 -53.1319 71.2686)" class="st22" width="0.9" height="39"/>
</g>
<text transform="matrix(1 0 0 1 313.8472 304.6377)" class="st18 st20 st24">ICT</text>
<text transform="matrix(1 0 0 1 308.3489 360.7601)" class="st18 st25 st26">Technology is our speaker</text>
</svg>
